# xmcd CD database file
#
# Track frame offsets:
#	150
#	33555
#	60757
#	87995
#	117422
#	147192
#	172495
#	191047
#	221465
#	245407
#	265600
#
# Disc length: 3548 seconds
#
# Revision: 0
# Processed by: cddbd v1.5.2PL0 Copyright (c) Steve Scherf et al.
# Submitted via: CDex 1.51
#
DISCID=9e0dda0b
DTITLE=Hispanic Music Association (Afro-Cuban jazz) - California Salsa II
DYEAR=1996
DGENRE=Salsa
TTITLE0=Descarga de Hma
TTITLE1=Come in out of the Pain
TTITLE2=Aqui Estoy
TTITLE3=Oye Hispaña
TTITLE4=As the City Sleeps
TTITLE5=Dazzle
TTITLE6=Merenge de Hma
TTITLE7=Lion's Den
TTITLE8=Family Tree
TTITLE9=We Gotta Go
TTITLE10=Es Todo
EXTD=YEAR: 1996
EXTT0=
EXTT1=
EXTT2=
EXTT3=
EXTT4=
EXTT5=
EXTT6=
EXTT7=
EXTT8=
EXTT9=
EXTT10=
PLAYORDER=
